<svg width="140" height="42" viewBox="0 0 140 42" fill="none" xmlns="http://www.w3.org/2000/svg">
<path d="M2 9L18 19.5652L2 27" stroke="#5C80FE" stroke-width="5"/>
<path d="M36.5117 22.3369C35.6654 23.0563 34.8486 23.5641 34.0615 23.8604C33.2829 24.1566 32.445 24.3047 31.5479 24.3047C30.0667 24.3047 28.9284 23.945 28.1328 23.2256C27.3372 22.4977 26.9395 21.571 26.9395 20.4453C26.9395 19.7852 27.0876 19.1842 27.3838 18.6426C27.6885 18.0924 28.082 17.6523 28.5645 17.3223C29.0553 16.9922 29.6055 16.7425 30.2148 16.5732C30.6634 16.4548 31.3405 16.3405 32.2461 16.2305C34.0911 16.0104 35.4495 15.748 36.3213 15.4434C36.3298 15.1302 36.334 14.9313 36.334 14.8467C36.334 13.9157 36.1182 13.2598 35.6865 12.8789C35.1025 12.3626 34.235 12.1045 33.084 12.1045C32.0091 12.1045 31.2135 12.2949 30.6973 12.6758C30.1895 13.0482 29.8128 13.7126 29.5674 14.6689L27.333 14.3643C27.5361 13.4079 27.8704 12.6377 28.3359 12.0537C28.8014 11.4613 29.4743 11.0085 30.3545 10.6953C31.2347 10.3737 32.2546 10.2129 33.4141 10.2129C34.5651 10.2129 35.5003 10.3483 36.2197 10.6191C36.9391 10.89 37.4681 11.2327 37.8066 11.6475C38.1452 12.0537 38.3822 12.57 38.5176 13.1963C38.5938 13.5856 38.6318 14.2881 38.6318 15.3037V18.3506C38.6318 20.4749 38.6784 21.8206 38.7715 22.3877C38.873 22.9463 39.0677 23.4837 39.3555 24H36.9688C36.7318 23.526 36.5794 22.9717 36.5117 22.3369ZM36.3213 17.2334C35.4919 17.5719 34.2477 17.8597 32.5889 18.0967C31.6494 18.2321 30.985 18.3844 30.5957 18.5537C30.2064 18.723 29.9059 18.9727 29.6943 19.3027C29.4827 19.6243 29.377 19.984 29.377 20.3818C29.377 20.9912 29.6055 21.499 30.0625 21.9053C30.528 22.3115 31.2051 22.5146 32.0938 22.5146C32.974 22.5146 33.7568 22.3242 34.4424 21.9434C35.1279 21.554 35.6315 21.0251 35.9531 20.3564C36.1986 19.8402 36.3213 19.0785 36.3213 18.0713V17.2334ZM45.0739 24H42.9538V5.38867H45.239V12.0283C46.2038 10.818 47.4353 10.2129 48.9333 10.2129C49.7627 10.2129 50.5456 10.3822 51.282 10.7207C52.0267 11.0508 52.6361 11.5205 53.1101 12.1299C53.5925 12.7308 53.9691 13.4587 54.24 14.3135C54.5108 15.1683 54.6462 16.0824 54.6462 17.0557C54.6462 19.3662 54.0749 21.152 52.9323 22.4131C51.7898 23.6742 50.4187 24.3047 48.8191 24.3047C47.2279 24.3047 45.9795 23.6403 45.0739 22.3115V24ZM45.0486 17.1572C45.0486 18.7738 45.2686 19.9417 45.7087 20.6611C46.4281 21.8376 47.4014 22.4258 48.6286 22.4258C49.6273 22.4258 50.4906 21.9941 51.2185 21.1309C51.9463 20.2591 52.3103 18.9642 52.3103 17.2461C52.3103 15.4857 51.959 14.1865 51.2566 13.3486C50.5626 12.5107 49.7204 12.0918 48.7302 12.0918C47.7315 12.0918 46.8682 12.5277 46.1404 13.3994C45.4125 14.2627 45.0486 15.5153 45.0486 17.1572ZM66.9662 24V22.2988C66.1114 23.6361 64.8546 24.3047 63.1957 24.3047C62.1209 24.3047 61.1306 24.0085 60.225 23.416C59.3279 22.8236 58.6297 21.9984 58.1303 20.9404C57.6394 19.874 57.394 18.651 57.394 17.2715C57.394 15.9258 57.6183 14.707 58.0668 13.6152C58.5154 12.515 59.1883 11.6729 60.0854 11.0889C60.9825 10.5049 61.9855 10.2129 63.0942 10.2129C63.9067 10.2129 64.6303 10.3864 65.2651 10.7334C65.8998 11.0719 66.4161 11.5163 66.8139 12.0664V5.38867H69.0864V24H66.9662ZM59.7426 17.2715C59.7426 18.998 60.1065 20.2887 60.8344 21.1436C61.5623 21.9984 62.4213 22.4258 63.4116 22.4258C64.4103 22.4258 65.2566 22.0195 65.9506 21.207C66.6531 20.3861 67.0043 19.1377 67.0043 17.4619C67.0043 15.6169 66.6489 14.2627 65.9379 13.3994C65.227 12.5361 64.351 12.1045 63.31 12.1045C62.2944 12.1045 61.4438 12.5192 60.7582 13.3486C60.0812 14.1781 59.7426 15.4857 59.7426 17.2715ZM75.5793 24H73.4591V5.38867H75.7443V12.0283C76.7091 10.818 77.9406 10.2129 79.4386 10.2129C80.2681 10.2129 81.0509 10.3822 81.7873 10.7207C82.5321 11.0508 83.1414 11.5205 83.6154 12.1299C84.0978 12.7308 84.4744 13.4587 84.7453 14.3135C85.0161 15.1683 85.1515 16.0824 85.1515 17.0557C85.1515 19.3662 84.5802 21.152 83.4377 22.4131C82.2951 23.6742 80.924 24.3047 79.3244 24.3047C77.7332 24.3047 76.4849 23.6403 75.5793 22.3115V24ZM75.5539 17.1572C75.5539 18.7738 75.7739 19.9417 76.214 20.6611C76.9334 21.8376 77.9067 22.4258 79.1339 22.4258C80.1326 22.4258 80.9959 21.9941 81.7238 21.1309C82.4517 20.2591 82.8156 18.9642 82.8156 17.2461C82.8156 15.4857 82.4643 14.1865 81.7619 13.3486C81.0679 12.5107 80.2257 12.0918 79.2355 12.0918C78.2368 12.0918 77.3735 12.5277 76.6457 13.3994C75.9178 14.2627 75.5539 15.5153 75.5539 17.1572ZM88.7372 8.0166V5.38867H91.0223V8.0166H88.7372ZM88.7372 24V10.5176H91.0223V24H88.7372ZM95.2936 24V10.5176H97.3502V12.4346C98.3404 10.9535 99.7708 10.2129 101.641 10.2129C102.454 10.2129 103.199 10.361 103.876 10.6572C104.561 10.945 105.073 11.3258 105.412 11.7998C105.75 12.2738 105.987 12.8366 106.123 13.4883C106.207 13.9115 106.25 14.652 106.25 15.71V24H103.964V15.7988C103.964 14.8678 103.876 14.1738 103.698 13.7168C103.52 13.2513 103.203 12.8831 102.746 12.6123C102.297 12.333 101.768 12.1934 101.159 12.1934C100.185 12.1934 99.3434 12.5023 98.6324 13.1201C97.9299 13.738 97.5787 14.9102 97.5787 16.6367V24H95.2936ZM115.535 21.9561L115.866 23.9746C115.222 24.11 114.647 24.1777 114.139 24.1777C113.31 24.1777 112.666 24.0465 112.209 23.7842C111.752 23.5218 111.431 23.179 111.244 22.7559C111.058 22.3242 110.965 21.4229 110.965 20.0518V12.2949H109.289V10.5176H110.965V7.17871L113.238 5.80762V10.5176H115.535V12.2949H113.238V20.1787C113.238 20.8304 113.276 21.2493 113.352 21.4355C113.437 21.6217 113.568 21.7699 113.745 21.8799C113.932 21.9899 114.194 22.0449 114.533 22.0449C114.786 22.0449 115.121 22.0153 115.535 21.9561Z" fill="white"/>
<path d="M26.9908 31.4888H54" stroke="#5C80FE" stroke-width="5"/>
</svg>
